# xmcd
# 
# Track frame offsets:
#     150
#     18358
#     26085
# 
# Disc length: 587
# 
# Revision: 2
# Processed by: cddbd v1.5.2PL0 Copyright (c) Steve Scherf et al.
# Submitted via: BonkEnc v1.0.15
# 
DISCID=1a024903
DTITLE=水木一郎 - 燃えよドラゴンズ！2004
DYEAR=2004
DGENRE=応援歌
TTITLE0=燃えよドラゴンズ! 2004
TTITLE1=燃えよドラゴンズ! ～ナゴヤドーム合唱編
TTITLE2=燃えよドラゴンズ! 2004 (オリジナル･カラオケ)
EXTD=
EXTT0=
EXTT1=
EXTT2=
PLAYORDER=
